<svg width="24" height="25" viewBox="0 0 24 25" fill="none" xmlns="http://www.w3.org/2000/svg">
<path d="M13.3765 21.1467C10.9765 18.7407 11.8275 16.8648 13.1305 15.5618L13.9715 14.7208C14.8087 13.8835 16.1662 13.8835 17.0035 14.7208L20.6425 18.3608C20.9396 18.6573 21.0683 19.0831 20.9853 19.4946C20.9022 19.9062 20.6184 20.2487 20.2295 20.4067C15.5693 22.3114 10.2214 21.2345 6.66153 17.6747C3.1017 14.1149 2.02483 8.76691 3.92947 4.10675C4.08756 3.71782 4.43006 3.43402 4.84159 3.35095C5.25312 3.26788 5.6789 3.3966 5.97547 3.69375L9.61747 7.33075C10.4547 8.16803 10.4547 9.52547 9.61747 10.3628L8.77647 11.2038C7.47647 12.5038 5.59747 13.3578 3.19147 10.9578" stroke="black" stroke-linecap="round" stroke-linejoin="round"/>
</svg>
